<mxfile host="app.diagrams.net" modified="2021-03-04T00:53:02.850Z" agent="5.0 (Windows NT 10.0; Win64; x64) AppleWebKit/537.36 (KHTML, like Gecko) Chrome/89.0.4389.69 Safari/537.36 Edg/89.0.774.39" etag="kmNzAIqx6o3AOPn2h_iL" version="14.4.3" type="github">
  <diagram id="Ku_MUatzIB8CfUjQbeJw" name="Page-1">
    <mxGraphModel dx="1218" dy="585" grid="1" gridSize="10" guides="1" tooltips="1" connect="1" arrows="1" fold="1" page="1" pageScale="1" pageWidth="850" pageHeight="1100" math="0" shadow="0">
      <root>
        <mxCell id="0" />
        <mxCell id="1" parent="0" />
        <mxCell id="6FyPKjocAU58G6afj5R4-1" value="Men&#39;s Clothing Store" style="ellipse;whiteSpace=wrap;html=1;" parent="1" vertex="1">
          <mxGeometry x="340" y="260" width="120" height="80" as="geometry" />
        </mxCell>
        <mxCell id="6FyPKjocAU58G6afj5R4-2" value="Customer" style="rounded=0;whiteSpace=wrap;html=1;" parent="1" vertex="1">
          <mxGeometry x="30" y="70" width="120" height="60" as="geometry" />
        </mxCell>
        <mxCell id="6FyPKjocAU58G6afj5R4-3" value="Manager" style="rounded=0;whiteSpace=wrap;html=1;" parent="1" vertex="1">
          <mxGeometry x="400" width="120" height="60" as="geometry" />
        </mxCell>
        <mxCell id="6FyPKjocAU58G6afj5R4-4" value="Deliver" style="rounded=0;whiteSpace=wrap;html=1;" parent="1" vertex="1">
          <mxGeometry x="710" y="230" width="120" height="60" as="geometry" />
        </mxCell>
        <mxCell id="6FyPKjocAU58G6afj5R4-6" value="Payment System" style="rounded=0;whiteSpace=wrap;html=1;" parent="1" vertex="1">
          <mxGeometry x="20" y="410" width="120" height="60" as="geometry" />
        </mxCell>
        <mxCell id="6FyPKjocAU58G6afj5R4-8" value="Payment request" style="endArrow=classic;html=1;exitX=0;exitY=1;exitDx=0;exitDy=0;entryX=1;entryY=0;entryDx=0;entryDy=0;" parent="1" source="6FyPKjocAU58G6afj5R4-1" target="6FyPKjocAU58G6afj5R4-6" edge="1">
          <mxGeometry relative="1" as="geometry">
            <mxPoint x="370" y="300" as="sourcePoint" />
            <mxPoint x="470" y="300" as="targetPoint" />
            <Array as="points">
              <mxPoint x="150" y="340" />
            </Array>
          </mxGeometry>
        </mxCell>
        <mxCell id="6FyPKjocAU58G6afj5R4-10" value="" style="endArrow=classic;html=1;exitX=0.25;exitY=0;exitDx=0;exitDy=0;entryX=0;entryY=0.5;entryDx=0;entryDy=0;" parent="1" source="6FyPKjocAU58G6afj5R4-6" target="6FyPKjocAU58G6afj5R4-1" edge="1">
          <mxGeometry relative="1" as="geometry">
            <mxPoint x="370" y="300" as="sourcePoint" />
            <mxPoint x="470" y="300" as="targetPoint" />
            <Array as="points">
              <mxPoint x="130" y="300" />
            </Array>
          </mxGeometry>
        </mxCell>
        <mxCell id="6FyPKjocAU58G6afj5R4-11" value="Payment confirm" style="edgeLabel;resizable=0;html=1;align=center;verticalAlign=middle;" parent="6FyPKjocAU58G6afj5R4-10" connectable="0" vertex="1">
          <mxGeometry relative="1" as="geometry" />
        </mxCell>
        <mxCell id="6FyPKjocAU58G6afj5R4-14" value="Content Menu&lt;br&gt;" style="endArrow=classic;startArrow=classic;html=1;exitX=0.5;exitY=0;exitDx=0;exitDy=0;entryX=0.25;entryY=1;entryDx=0;entryDy=0;" parent="1" source="6FyPKjocAU58G6afj5R4-1" target="6FyPKjocAU58G6afj5R4-3" edge="1">
          <mxGeometry x="-0.2013" y="-1" width="50" height="50" relative="1" as="geometry">
            <mxPoint x="390" y="150" as="sourcePoint" />
            <mxPoint x="440" y="100" as="targetPoint" />
            <Array as="points">
              <mxPoint x="380" y="180" />
              <mxPoint x="370" y="110" />
            </Array>
            <mxPoint as="offset" />
          </mxGeometry>
        </mxCell>
        <mxCell id="6FyPKjocAU58G6afj5R4-15" value="" style="endArrow=classic;html=1;exitX=0.24;exitY=0.072;exitDx=0;exitDy=0;entryX=0.75;entryY=1;entryDx=0;entryDy=0;exitPerimeter=0;" parent="1" source="6FyPKjocAU58G6afj5R4-1" target="6FyPKjocAU58G6afj5R4-2" edge="1">
          <mxGeometry relative="1" as="geometry">
            <mxPoint x="370" y="290" as="sourcePoint" />
            <mxPoint x="470" y="290" as="targetPoint" />
            <Array as="points">
              <mxPoint x="280" y="170" />
            </Array>
          </mxGeometry>
        </mxCell>
        <mxCell id="6FyPKjocAU58G6afj5R4-16" value="Content Menu" style="edgeLabel;resizable=0;html=1;align=center;verticalAlign=middle;" parent="6FyPKjocAU58G6afj5R4-15" connectable="0" vertex="1">
          <mxGeometry relative="1" as="geometry" />
        </mxCell>
        <mxCell id="6FyPKjocAU58G6afj5R4-19" value="Staff" style="rounded=0;whiteSpace=wrap;html=1;" parent="1" vertex="1">
          <mxGeometry x="660" y="410" width="120" height="60" as="geometry" />
        </mxCell>
        <mxCell id="6FyPKjocAU58G6afj5R4-20" value="" style="endArrow=classic;html=1;exitX=0.5;exitY=1;exitDx=0;exitDy=0;entryX=0;entryY=0;entryDx=0;entryDy=0;" parent="1" source="6FyPKjocAU58G6afj5R4-2" target="6FyPKjocAU58G6afj5R4-1" edge="1">
          <mxGeometry relative="1" as="geometry">
            <mxPoint x="370" y="290" as="sourcePoint" />
            <mxPoint x="470" y="290" as="targetPoint" />
          </mxGeometry>
        </mxCell>
        <mxCell id="6FyPKjocAU58G6afj5R4-21" value="Product Order" style="edgeLabel;resizable=0;html=1;align=center;verticalAlign=middle;" parent="6FyPKjocAU58G6afj5R4-20" connectable="0" vertex="1">
          <mxGeometry relative="1" as="geometry" />
        </mxCell>
        <mxCell id="6FyPKjocAU58G6afj5R4-22" value="" style="endArrow=classic;html=1;exitX=0.25;exitY=1;exitDx=0;exitDy=0;entryX=0.067;entryY=0.284;entryDx=0;entryDy=0;entryPerimeter=0;" parent="1" source="6FyPKjocAU58G6afj5R4-2" target="6FyPKjocAU58G6afj5R4-1" edge="1">
          <mxGeometry relative="1" as="geometry">
            <mxPoint x="370" y="290" as="sourcePoint" />
            <mxPoint x="470" y="290" as="targetPoint" />
            <Array as="points">
              <mxPoint x="190" y="240" />
            </Array>
          </mxGeometry>
        </mxCell>
        <mxCell id="6FyPKjocAU58G6afj5R4-23" value="Payment request" style="edgeLabel;resizable=0;html=1;align=center;verticalAlign=middle;" parent="6FyPKjocAU58G6afj5R4-22" connectable="0" vertex="1">
          <mxGeometry relative="1" as="geometry" />
        </mxCell>
        <mxCell id="6FyPKjocAU58G6afj5R4-24" value="" style="endArrow=classic;html=1;exitX=1;exitY=0;exitDx=0;exitDy=0;entryX=0;entryY=0.5;entryDx=0;entryDy=0;" parent="1" source="6FyPKjocAU58G6afj5R4-1" target="6FyPKjocAU58G6afj5R4-4" edge="1">
          <mxGeometry relative="1" as="geometry">
            <mxPoint x="370" y="290" as="sourcePoint" />
            <mxPoint x="560" y="250" as="targetPoint" />
          </mxGeometry>
        </mxCell>
        <mxCell id="6FyPKjocAU58G6afj5R4-25" value="Delivery confirm" style="edgeLabel;resizable=0;html=1;align=center;verticalAlign=middle;" parent="6FyPKjocAU58G6afj5R4-24" connectable="0" vertex="1">
          <mxGeometry relative="1" as="geometry" />
        </mxCell>
        <mxCell id="IlltA7qEXF7I4D_hS2O2-1" value="Delivery request" style="endArrow=classic;html=1;entryX=1;entryY=0.5;entryDx=0;entryDy=0;exitX=0;exitY=0.5;exitDx=0;exitDy=0;" parent="1" source="6FyPKjocAU58G6afj5R4-19" target="6FyPKjocAU58G6afj5R4-1" edge="1">
          <mxGeometry width="50" height="50" relative="1" as="geometry">
            <mxPoint x="400" y="320" as="sourcePoint" />
            <mxPoint x="450" y="270" as="targetPoint" />
          </mxGeometry>
        </mxCell>
        <mxCell id="IlltA7qEXF7I4D_hS2O2-2" value="Deliver request" style="endArrow=classic;html=1;entryX=0.5;entryY=1;entryDx=0;entryDy=0;exitX=0.932;exitY=0.226;exitDx=0;exitDy=0;exitPerimeter=0;" parent="1" source="6FyPKjocAU58G6afj5R4-1" target="6FyPKjocAU58G6afj5R4-4" edge="1">
          <mxGeometry width="50" height="50" relative="1" as="geometry">
            <mxPoint x="450" y="270" as="sourcePoint" />
            <mxPoint x="450" y="270" as="targetPoint" />
            <Array as="points">
              <mxPoint x="570" y="310" />
              <mxPoint x="610" y="310" />
            </Array>
          </mxGeometry>
        </mxCell>
        <mxCell id="IlltA7qEXF7I4D_hS2O2-3" value="Product Order" style="endArrow=classic;html=1;exitX=1;exitY=1;exitDx=0;exitDy=0;entryX=0;entryY=0.75;entryDx=0;entryDy=0;" parent="1" source="6FyPKjocAU58G6afj5R4-1" target="6FyPKjocAU58G6afj5R4-19" edge="1">
          <mxGeometry width="50" height="50" relative="1" as="geometry">
            <mxPoint x="450" y="380" as="sourcePoint" />
            <mxPoint x="660" y="430" as="targetPoint" />
            <Array as="points">
              <mxPoint x="540" y="410" />
            </Array>
          </mxGeometry>
        </mxCell>
        <mxCell id="IlltA7qEXF7I4D_hS2O2-4" value="Content Product" style="endArrow=classic;startArrow=classic;html=1;entryX=0.5;entryY=1;entryDx=0;entryDy=0;" parent="1" source="6FyPKjocAU58G6afj5R4-1" target="6FyPKjocAU58G6afj5R4-3" edge="1">
          <mxGeometry x="0.1998" width="50" height="50" relative="1" as="geometry">
            <mxPoint x="400" y="320" as="sourcePoint" />
            <mxPoint x="450" y="270" as="targetPoint" />
            <Array as="points" />
            <mxPoint as="offset" />
          </mxGeometry>
        </mxCell>
        <mxCell id="IlltA7qEXF7I4D_hS2O2-5" value="Salary System" style="rounded=0;whiteSpace=wrap;html=1;" parent="1" vertex="1">
          <mxGeometry x="340" y="470" width="120" height="60" as="geometry" />
        </mxCell>
        <mxCell id="IlltA7qEXF7I4D_hS2O2-9" value="Salary request" style="endArrow=classic;html=1;exitX=0.5;exitY=1;exitDx=0;exitDy=0;entryX=0.25;entryY=0;entryDx=0;entryDy=0;" parent="1" source="6FyPKjocAU58G6afj5R4-1" target="IlltA7qEXF7I4D_hS2O2-5" edge="1">
          <mxGeometry width="50" height="50" relative="1" as="geometry">
            <mxPoint x="400" y="320" as="sourcePoint" />
            <mxPoint x="450" y="270" as="targetPoint" />
          </mxGeometry>
        </mxCell>
        <mxCell id="IlltA7qEXF7I4D_hS2O2-10" value="Salary Information" style="endArrow=classic;html=1;exitX=0.75;exitY=0;exitDx=0;exitDy=0;entryX=0.631;entryY=0.995;entryDx=0;entryDy=0;entryPerimeter=0;" parent="1" source="IlltA7qEXF7I4D_hS2O2-5" target="6FyPKjocAU58G6afj5R4-1" edge="1">
          <mxGeometry width="50" height="50" relative="1" as="geometry">
            <mxPoint x="400" y="320" as="sourcePoint" />
            <mxPoint x="450" y="270" as="targetPoint" />
          </mxGeometry>
        </mxCell>
        <mxCell id="IlltA7qEXF7I4D_hS2O2-18" value="Salary Request" style="endArrow=classic;html=1;exitX=0.75;exitY=1;exitDx=0;exitDy=0;" parent="1" source="6FyPKjocAU58G6afj5R4-3" target="6FyPKjocAU58G6afj5R4-1" edge="1">
          <mxGeometry width="50" height="50" relative="1" as="geometry">
            <mxPoint x="400" y="230" as="sourcePoint" />
            <mxPoint x="450" y="180" as="targetPoint" />
            <Array as="points">
              <mxPoint x="510" y="150" />
            </Array>
          </mxGeometry>
        </mxCell>
        <mxCell id="IlltA7qEXF7I4D_hS2O2-19" value="Salary Information" style="endArrow=classic;html=1;exitX=0.721;exitY=0.034;exitDx=0;exitDy=0;exitPerimeter=0;entryX=1;entryY=0.25;entryDx=0;entryDy=0;" parent="1" source="6FyPKjocAU58G6afj5R4-1" target="6FyPKjocAU58G6afj5R4-3" edge="1">
          <mxGeometry x="0.3826" y="-3" width="50" height="50" relative="1" as="geometry">
            <mxPoint x="400" y="230" as="sourcePoint" />
            <mxPoint x="450" y="180" as="targetPoint" />
            <Array as="points">
              <mxPoint x="600" y="150" />
            </Array>
            <mxPoint as="offset" />
          </mxGeometry>
        </mxCell>
      </root>
    </mxGraphModel>
  </diagram>
</mxfile>
